<svg width="139" height="40" viewBox="0 0 139 40" fill="none" xmlns="http://www.w3.org/2000/svg">
<path d="M137.361 35.2447C137.361 37.3637 135.609 39.0802 133.441 39.0802H5.1727C3.00642 39.0802 1.24805 37.3637 1.24805 35.2447V4.65788C1.24805 2.53985 3.00642 0.817383 5.1727 0.817383H133.44C135.609 0.817383 137.36 2.53985 137.36 4.65788L137.361 35.2447Z" fill="black"/>
<path d="M133.028 0.863686C135.388 0.863686 137.309 2.73629 137.309 5.03759V34.86C137.309 37.1613 135.388 39.0339 133.028 39.0339H5.58125C3.22095 39.0339 1.30033 37.1613 1.30033 34.86V5.03759C1.30033 2.73629 3.22095 0.863686 5.58125 0.863686H133.028ZM133.028 0.0671792H5.58125C2.77871 0.0671792 0.483398 2.3051 0.483398 5.03759V34.86C0.483398 37.5925 2.77871 39.8304 5.58125 39.8304H133.028C135.83 39.8304 138.125 37.5925 138.125 34.86V5.03759C138.125 2.3051 135.83 0.0671792 133.028 0.0671792Z" fill="#A6A6A6"/>
<path d="M31.2008 19.734C31.1712 16.5301 33.8914 14.9714 34.0158 14.8988C32.4752 12.7088 30.0874 12.4096 29.2483 12.3858C27.2428 12.18 25.2975 13.5558 24.2758 13.5558C23.2338 13.5558 21.6606 12.4056 19.9651 12.4394C17.7832 12.4723 15.742 13.7039 14.6225 15.6165C12.3122 19.5163 14.0353 25.2472 16.2488 28.3994C17.356 29.9432 18.6499 31.667 20.3434 31.6063C22.0002 31.5397 22.619 30.5765 24.6184 30.5765C26.5994 30.5765 27.1806 31.6063 28.9078 31.5676C30.6859 31.5397 31.8054 30.0168 32.8739 28.4591C34.1534 26.6896 34.6673 24.947 34.6877 24.8575C34.6459 24.8436 31.2344 23.5742 31.2008 19.734Z" fill="white"/>
<path d="M27.9381 10.3121C28.8292 9.22558 29.439 7.74738 29.2697 6.24731C27.9799 6.30298 26.367 7.11714 25.4382 8.17981C24.6164 9.11623 23.8823 10.6511 24.0719 12.0945C25.5207 12.1999 27.0083 11.3817 27.9381 10.3121Z" fill="white"/>
<path d="M50.4933 10.0168C50.4933 11.1869 50.1334 12.0676 49.4146 12.6591C48.7489 13.2049 47.8027 13.4782 46.5772 13.4782C45.9695 13.4782 45.4495 13.4524 45.0142 13.4007V7.00775C45.5821 6.91829 46.1938 6.87256 46.8545 6.87256C48.0219 6.87256 48.9018 7.12008 49.4952 7.61514C50.1599 8.17481 50.4933 8.97504 50.4933 10.0168ZM49.3667 10.0457C49.3667 9.28718 49.1608 8.70564 48.7489 8.30006C48.3369 7.89547 47.7354 7.69268 46.9432 7.69268C46.6067 7.69268 46.3202 7.71455 46.0827 7.76027V12.6203C46.2142 12.6402 46.4548 12.6492 46.8045 12.6492C47.6222 12.6492 48.2533 12.4275 48.6979 11.9841C49.1424 11.5408 49.3667 10.8946 49.3667 10.0457Z" fill="white"/>
<path d="M56.4671 11.0389C56.4671 11.7596 56.2561 12.3501 55.834 12.8133C55.3915 13.2895 54.8052 13.5271 54.0732 13.5271C53.3676 13.5271 52.8058 13.2994 52.3868 12.8421C51.9688 12.3859 51.7598 11.8103 51.7598 11.1164C51.7598 10.3907 51.9749 9.79528 52.4072 9.33303C52.8395 8.87078 53.4206 8.63916 54.1527 8.63916C54.8582 8.63916 55.4251 8.8668 55.8544 9.32309C56.2622 9.76645 56.4671 10.339 56.4671 11.0389ZM55.3589 11.0727C55.3589 10.6402 55.263 10.2695 55.0724 9.96029C54.848 9.58652 54.5289 9.39963 54.114 9.39963C53.6847 9.39963 53.3585 9.58652 53.1341 9.96029C52.9425 10.2695 52.8477 10.6462 52.8477 11.0916C52.8477 11.524 52.9435 11.8948 53.1341 12.2039C53.3656 12.5777 53.6878 12.7646 54.1038 12.7646C54.5116 12.7646 54.8317 12.5747 55.0622 12.194C55.26 11.8789 55.3589 11.5051 55.3589 11.0727Z" fill="white"/>
<path d="M64.4768 8.7345L62.973 13.4206H61.9942L61.3712 11.3857C61.2132 10.8777 61.0847 10.3727 60.9848 9.87173H60.9654C60.8727 10.3867 60.7442 10.8907 60.579 11.3857L59.9173 13.4206H58.9273L57.5132 8.7345H58.6113L59.1547 10.9622C59.2862 11.4891 59.3943 11.9911 59.481 12.4663H59.5003C59.5799 12.0746 59.7114 11.5756 59.8969 10.9722L60.579 8.73549H61.4497L62.1033 10.9245C62.2613 11.4583 62.3898 11.9722 62.4887 12.4673H62.5183C62.5906 11.9851 62.6997 11.4712 62.8445 10.9245L63.4277 8.73549H64.4768V8.7345Z" fill="white"/>
<path d="M70.0161 13.4206H68.9476V10.7366C68.9476 9.90953 68.6254 9.49599 67.979 9.49599C67.6619 9.49599 67.406 9.60931 67.2072 9.83696C67.0104 10.0646 66.9105 10.333 66.9105 10.6402V13.4196H65.842V10.0736C65.842 9.662 65.8287 9.21566 65.8032 8.73253H66.7422L66.7922 9.46517H66.8218C66.9462 9.23753 67.1317 9.04965 67.3754 8.89954C67.665 8.72458 67.9892 8.63611 68.344 8.63611C68.7926 8.63611 69.1658 8.77727 69.4625 9.06058C69.8315 9.40752 70.0161 9.92543 70.0161 10.6133V13.4206Z" fill="white"/>
<path d="M72.963 13.4207H71.8955V6.58435H72.963V13.4207Z" fill="white"/>
<path d="M79.2538 11.0389C79.2538 11.7596 79.0427 12.3501 78.6206 12.8133C78.1781 13.2895 77.5908 13.5271 76.8598 13.5271C76.1532 13.5271 75.5914 13.2994 75.1734 12.8421C74.7554 12.3859 74.5464 11.8103 74.5464 11.1164C74.5464 10.3907 74.7615 9.79528 75.1938 9.33303C75.6261 8.87078 76.2073 8.63916 76.9383 8.63916C77.6449 8.63916 78.2107 8.8668 78.641 9.32309C79.0488 9.76645 79.2538 10.339 79.2538 11.0389ZM78.1445 11.0727C78.1445 10.6402 78.0486 10.2695 77.858 9.96029C77.6347 9.58652 77.3145 9.39963 76.9006 9.39963C76.4703 9.39963 76.1441 9.58652 75.9208 9.96029C75.7291 10.2695 75.6343 10.6462 75.6343 11.0916C75.6343 11.524 75.7301 11.8948 75.9208 12.2039C76.1522 12.5777 76.4744 12.7646 76.8904 12.7646C77.2982 12.7646 77.6173 12.5747 77.8478 12.194C78.0466 11.8789 78.1445 11.5051 78.1445 11.0727Z" fill="white"/>
<path d="M84.4252 13.4207H83.4658L83.3863 12.8809H83.3567C83.0284 13.3113 82.5604 13.5271 81.9528 13.5271C81.4991 13.5271 81.132 13.3849 80.8557 13.1026C80.6049 12.8461 80.4795 12.527 80.4795 12.1483C80.4795 11.5757 80.7242 11.1393 81.2166 10.8371C81.7081 10.5349 82.3993 10.3868 83.2894 10.3937V10.3062C83.2894 9.68891 82.957 9.38075 82.2913 9.38075C81.8172 9.38075 81.3991 9.49705 81.0382 9.72768L80.821 9.04375C81.2676 8.77435 81.8192 8.63916 82.4697 8.63916C83.7258 8.63916 84.3559 9.28531 84.3559 10.5776V12.3033C84.3559 12.7716 84.3793 13.1443 84.4252 13.4207ZM83.3159 11.8103V11.0876C82.1373 11.0677 81.548 11.3828 81.548 12.032C81.548 12.2765 81.6153 12.4594 81.7529 12.5817C81.8906 12.704 82.0659 12.7646 82.275 12.7646C82.5095 12.7646 82.7287 12.692 82.9285 12.5479C83.1294 12.4028 83.2527 12.2188 83.2986 11.9932C83.3098 11.9425 83.3159 11.8809 83.3159 11.8103Z" fill="white"/>
<path d="M90.4963 13.4207H89.5481L89.4981 12.6681H89.4685C89.1657 13.2407 88.6498 13.527 87.9249 13.527C87.3458 13.527 86.8635 13.3053 86.4812 12.862C86.0989 12.4186 85.9082 11.843 85.9082 11.1363C85.9082 10.3778 86.1152 9.76342 86.5312 9.29422C86.9339 8.85682 87.4274 8.63812 88.0146 8.63812C88.66 8.63812 89.1117 8.84986 89.3686 9.27434H89.389V6.58435H90.4585V12.1582C90.4585 12.6145 90.4708 13.0349 90.4963 13.4207ZM89.389 11.4444V10.6631C89.389 10.5279 89.3788 10.4185 89.3594 10.335C89.2993 10.0845 89.1698 9.87377 88.973 9.70378C88.7742 9.53379 88.5346 9.4483 88.2583 9.4483C87.8597 9.4483 87.5477 9.60238 87.3183 9.91154C87.0909 10.2207 86.9757 10.6154 86.9757 11.0975C86.9757 11.5607 87.0848 11.9365 87.304 12.2258C87.5354 12.5339 87.8474 12.688 88.2379 12.688C88.5886 12.688 88.869 12.5598 89.0821 12.3023C89.2881 12.0647 89.389 11.7784 89.389 11.4444Z" fill="white"/>
<path d="M99.6351 11.0389C99.6351 11.7596 99.424 12.3501 99.0019 12.8133C98.5594 13.2895 97.9742 13.5271 97.2411 13.5271C96.5366 13.5271 95.9748 13.2994 95.5548 12.8421C95.1368 12.3859 94.9277 11.8103 94.9277 11.1164C94.9277 10.3907 95.1429 9.79528 95.5752 9.33303C96.0075 8.87078 96.5886 8.63916 97.3217 8.63916C98.0262 8.63916 98.5941 8.8668 99.0223 9.32309C99.4302 9.76645 99.6351 10.339 99.6351 11.0389ZM98.5278 11.0727C98.5278 10.6402 98.432 10.2695 98.2413 9.96029C98.016 9.58652 97.6979 9.39963 97.2819 9.39963C96.8537 9.39963 96.5274 9.58652 96.3021 9.96029C96.1104 10.2695 96.0156 10.6462 96.0156 11.0916C96.0156 11.524 96.1115 11.8948 96.3021 12.2039C96.5336 12.5777 96.8557 12.7646 97.2717 12.7646C97.6796 12.7646 98.0007 12.5747 98.2311 12.194C98.4279 11.8789 98.5278 11.5051 98.5278 11.0727Z" fill="white"/>
<path d="M105.38 13.4206H104.312V10.7366C104.312 9.90953 103.99 9.49599 103.343 9.49599C103.026 9.49599 102.77 9.60931 102.572 9.83696C102.374 10.0646 102.275 10.333 102.275 10.6402V13.4196H101.206V10.0736C101.206 9.662 101.193 9.21566 101.168 8.73253H102.106L102.156 9.46517H102.185C102.311 9.23753 102.496 9.04965 102.739 8.89954C103.03 8.72458 103.353 8.63611 103.709 8.63611C104.156 8.63611 104.529 8.77727 104.826 9.06058C105.196 9.40752 105.38 9.92543 105.38 10.6133V13.4206Z" fill="white"/>
<path d="M112.571 9.51491H111.395V11.7914C111.395 12.3699 111.604 12.6592 112.018 12.6592C112.209 12.6592 112.368 12.6433 112.494 12.6105L112.521 13.4008C112.31 13.4783 112.033 13.5171 111.691 13.5171C111.269 13.5171 110.941 13.3918 110.703 13.1413C110.465 12.8908 110.347 12.4693 110.347 11.8778V9.51491H109.644V8.73456H110.347V7.87567L111.394 7.5675V8.73356H112.57V9.51491H112.571Z" fill="white"/>
<path d="M118.227 13.4207H117.158V10.7565C117.158 9.91651 116.836 9.49602 116.19 9.49602C115.695 9.49602 115.356 9.73957 115.171 10.2267C115.139 10.3291 115.121 10.4543 115.121 10.6014V13.4197H114.053V6.58435H115.121V9.40854H115.141C115.478 8.8946 115.96 8.63812 116.585 8.63812C117.027 8.63812 117.393 8.77928 117.684 9.0626C118.046 9.4155 118.227 9.94037 118.227 10.6342V13.4207Z" fill="white"/>
<path d="M124.063 10.856C124.063 11.0429 124.048 11.1999 124.023 11.3282H120.818C120.833 11.7914 120.986 12.1443 121.282 12.3889C121.553 12.6076 121.903 12.7169 122.331 12.7169C122.805 12.7169 123.238 12.6434 123.627 12.4952L123.794 13.2189C123.339 13.4118 122.802 13.5082 122.181 13.5082C121.437 13.5082 120.851 13.2945 120.427 12.867C120.001 12.4396 119.79 11.866 119.79 11.1463C119.79 10.4395 119.986 9.85098 120.383 9.38177C120.797 8.88076 121.357 8.63025 122.063 8.63025C122.754 8.63025 123.28 8.88076 123.634 9.38177C123.921 9.77941 124.063 10.2715 124.063 10.856ZM123.043 10.5866C123.051 10.2774 122.981 10.011 122.836 9.78637C122.65 9.49709 122.368 9.35195 121.986 9.35195C121.637 9.35195 121.353 9.49311 121.135 9.77643C120.958 10.0021 120.853 10.2715 120.818 10.5866H123.043Z" fill="white"/>
<path d="M55.1785 31.3846H52.8631L51.5947 27.4988H47.1861L45.9779 31.3846H43.7236L48.0915 18.1554H50.7893L55.1785 31.3846ZM51.2124 25.8685L50.0654 22.414C49.944 22.0611 49.7167 21.2301 49.3812 19.9219H49.3404C49.2069 20.4845 48.9918 21.3156 48.6961 22.414L47.5695 25.8685H51.2124Z" fill="white"/>
<path d="M66.4111 26.4978C66.4111 28.1201 65.9615 29.4025 65.0622 30.3439C64.2568 31.1819 63.2566 31.6004 62.0626 31.6004C60.7739 31.6004 59.8481 31.1491 59.2843 30.2465H59.2435V35.2716H57.0698V24.9858C57.0698 23.9659 57.0423 22.9191 56.9893 21.8455H58.901L59.0223 23.3575H59.0631C59.788 22.2183 60.8881 21.6497 62.3644 21.6497C63.5186 21.6497 64.4821 22.094 65.2529 22.9837C66.0257 23.8744 66.4111 25.0454 66.4111 26.4978ZM64.1966 26.5753C64.1966 25.6469 63.9825 24.8814 63.5522 24.279C63.0822 23.6507 62.4511 23.3366 61.6599 23.3366C61.1236 23.3366 60.6363 23.5116 60.2009 23.8565C59.7645 24.2044 59.479 24.6587 59.3455 25.2214C59.2782 25.4838 59.2445 25.6986 59.2445 25.8675V27.4581C59.2445 28.1519 59.4627 28.7375 59.8991 29.2156C60.3355 29.6938 60.9024 29.9323 61.5998 29.9323C62.4185 29.9323 63.0557 29.6242 63.5115 29.0098C63.9682 28.3945 64.1966 27.5833 64.1966 26.5753Z" fill="white"/>
<path d="M77.664 26.4978C77.664 28.1201 77.2144 29.4025 76.3141 30.3439C75.5096 31.1819 74.5094 31.6004 73.3155 31.6004C72.0268 31.6004 71.101 31.1491 70.5382 30.2465H70.4974V35.2716H68.3237V24.9858C68.3237 23.9659 68.2962 22.9191 68.2432 21.8455H70.1549L70.2762 23.3575H70.317C71.0409 22.2183 72.141 21.6497 73.6183 21.6497C74.7715 21.6497 75.735 22.094 76.5078 22.9837C77.2776 23.8744 77.664 25.0454 77.664 26.4978ZM75.4495 26.5753C75.4495 25.6469 75.2344 24.8814 74.8041 24.279C74.3341 23.6507 73.705 23.3366 72.9128 23.3366C72.3755 23.3366 71.8892 23.5116 71.4528 23.8565C71.0164 24.2044 70.7319 24.6587 70.5984 25.2214C70.5321 25.4838 70.4974 25.6986 70.4974 25.8675V27.4581C70.4974 28.1519 70.7156 28.7375 71.15 29.2156C71.5863 29.6928 72.1532 29.9323 72.8526 29.9323C73.6714 29.9323 74.3086 29.6242 74.7643 29.0098C75.2211 28.3945 75.4495 27.5833 75.4495 26.5753Z" fill="white"/>
<path d="M90.2457 27.6747C90.2457 28.8 89.845 29.7156 89.0406 30.4224C88.1566 31.1948 86.926 31.5805 85.3446 31.5805C83.8846 31.5805 82.7141 31.3061 81.8281 30.7564L82.3318 28.9899C83.2861 29.5525 84.3332 29.8349 85.4741 29.8349C86.2928 29.8349 86.9301 29.6539 87.3878 29.2941C87.8436 28.9342 88.071 28.4511 88.071 27.8487C88.071 27.3119 87.8834 26.8596 87.5071 26.4928C87.133 26.1259 86.508 25.785 85.6352 25.4698C83.2596 24.606 82.0728 23.3405 82.0728 21.6764C82.0728 20.5889 82.4888 19.6972 83.3218 19.0033C84.1517 18.3085 85.259 17.9615 86.6436 17.9615C87.8783 17.9615 88.9039 18.1713 89.7227 18.5898L89.1792 20.3175C88.4146 19.9119 87.55 19.7091 86.5824 19.7091C85.8177 19.7091 85.2202 19.893 84.792 20.2589C84.4301 20.5859 84.2486 20.9846 84.2486 21.4567C84.2486 21.9796 84.4556 22.4121 84.8715 22.752C85.2335 23.0662 85.8911 23.4061 86.8454 23.773C88.0128 24.2312 88.8703 24.767 89.4219 25.3814C89.9714 25.9937 90.2457 26.7602 90.2457 27.6747Z" fill="white"/>
<path d="M97.4325 23.436H95.0365V28.0674C95.0365 29.2454 95.4586 29.8339 96.3048 29.8339C96.6933 29.8339 97.0155 29.8011 97.2704 29.7355L97.3305 31.3449C96.9023 31.501 96.3385 31.5795 95.6401 31.5795C94.7816 31.5795 94.1107 31.324 93.6264 30.8141C93.1442 30.3031 92.9015 29.4462 92.9015 28.2424V23.434H91.4741V21.8435H92.9015V20.0969L95.0365 19.4686V21.8435H97.4325V23.436Z" fill="white"/>
<path d="M108.243 26.5365C108.243 28.0028 107.813 29.2066 106.954 30.148C106.054 31.1173 104.859 31.6004 103.37 31.6004C101.934 31.6004 100.791 31.1362 99.9387 30.2077C99.0863 29.2792 98.6602 28.1072 98.6602 26.6946C98.6602 25.2164 99.0986 24.0056 99.9785 23.0642C100.856 22.1218 102.041 21.6506 103.531 21.6506C104.966 21.6506 106.121 22.1149 106.993 23.0443C107.827 23.946 108.243 25.11 108.243 26.5365ZM105.988 26.6051C105.988 25.7254 105.795 24.9709 105.405 24.3416C104.949 23.5801 104.297 23.2004 103.453 23.2004C102.579 23.2004 101.916 23.5811 101.46 24.3416C101.069 24.9719 100.877 25.7383 100.877 26.6449C100.877 27.5247 101.069 28.2792 101.46 28.9074C101.93 29.6689 102.587 30.0486 103.434 30.0486C104.264 30.0486 104.915 29.6609 105.385 28.8875C105.786 28.2464 105.988 27.4839 105.988 26.6051Z" fill="white"/>
<path d="M115.309 23.7094C115.094 23.6706 114.864 23.6507 114.624 23.6507C113.859 23.6507 113.268 23.9321 112.852 24.4957C112.49 24.9928 112.308 25.621 112.308 26.3795V31.3847H110.135L110.156 24.8496C110.156 23.7502 110.128 22.7491 110.074 21.8465H111.968L112.047 23.6716H112.107C112.337 23.0444 112.699 22.5394 113.194 22.1606C113.678 21.8196 114.201 21.6497 114.765 21.6497C114.966 21.6497 115.148 21.6636 115.309 21.6884V23.7094Z" fill="white"/>
<path d="M125.03 26.1637C125.03 26.5435 125.005 26.8636 124.951 27.125H118.43C118.455 28.0674 118.77 28.7881 119.376 29.2851C119.925 29.7295 120.636 29.9522 121.509 29.9522C122.474 29.9522 123.355 29.8021 124.147 29.5009L124.488 30.9721C123.562 31.3658 122.469 31.5616 121.208 31.5616C119.691 31.5616 118.5 31.1262 117.633 30.2564C116.769 29.3865 116.335 28.2185 116.335 26.7532C116.335 25.3148 116.738 24.1169 117.545 23.1616C118.389 22.1417 119.53 21.6317 120.965 21.6317C122.375 21.6317 123.443 22.1417 124.168 23.1616C124.742 23.9718 125.03 24.9738 125.03 26.1637ZM122.958 25.614C122.972 24.9857 122.83 24.443 122.535 23.9847C122.159 23.3952 121.581 23.101 120.803 23.101C120.093 23.101 119.514 23.3883 119.073 23.9648C118.711 24.4231 118.496 24.9728 118.43 25.613H122.958V25.614Z" fill="white"/>
</svg>
