<svg width="139" height="41" viewBox="0 0 139 41" fill="none" xmlns="http://www.w3.org/2000/svg">
<path d="M133.028 40.1226H5.58125C2.77871 40.1226 0.483398 37.8846 0.483398 35.1522V5.3297C0.483398 2.59722 2.77871 0.359293 5.58125 0.359293H133.028C135.83 0.359293 138.125 2.59722 138.125 5.3297V35.1522C138.125 37.8846 135.83 40.1226 133.028 40.1226Z" fill="black"/>
<path d="M133.028 1.1558C135.388 1.1558 137.309 3.0284 137.309 5.3297V35.1522C137.309 37.4534 135.388 39.3261 133.028 39.3261H5.58125C3.22095 39.3261 1.30033 37.4534 1.30033 35.1522V5.3297C1.30033 3.0284 3.22095 1.1558 5.58125 1.1558H133.028ZM133.028 0.359293H5.58125C2.77871 0.359293 0.483398 2.59722 0.483398 5.3297V35.1522C0.483398 37.8846 2.77871 40.1226 5.58125 40.1226H133.028C135.83 40.1226 138.125 37.8846 138.125 35.1522V5.3297C138.125 2.59722 135.83 0.359293 133.028 0.359293Z" fill="#A6A6A6"/>
<path d="M11.1227 7.85336C10.8232 8.15904 10.6499 8.63496 10.6499 9.25129V31.2354C10.6499 31.8517 10.8232 32.3277 11.1227 32.6333L11.1966 32.7004L23.8317 20.3863V20.0955L11.1966 7.78129L11.1227 7.85336Z" fill="url(#paint0_linear_24_9971)"/>
<path d="M28.0385 24.493L23.8315 20.3862V20.0955L28.0436 15.9887L28.138 16.0421L33.1262 18.8094C34.5498 19.5947 34.5498 20.887 33.1262 21.6773L28.138 24.4396L28.0385 24.493Z" fill="url(#paint1_linear_24_9971)"/>
<path d="M28.1379 24.4396L23.8315 20.2409L11.1226 32.6334C11.5954 33.118 12.3664 33.1764 13.2433 32.6918L28.1379 24.4396Z" fill="url(#paint2_linear_24_9971)"/>
<path d="M28.1379 16.0422L13.2433 7.7901C12.3664 7.31045 11.5954 7.36885 11.1226 7.85347L23.8315 20.241L28.1379 16.0422Z" fill="url(#paint3_linear_24_9971)"/>
<path d="M48.8287 10.5423C48.8287 11.3724 48.5738 12.0372 48.0717 12.533C47.4944 13.1207 46.7424 13.4165 45.821 13.4165C44.9403 13.4165 44.1884 13.1158 43.5716 12.5231C42.9534 11.9216 42.645 11.1835 42.645 10.3C42.645 9.41655 42.9534 8.67844 43.5716 8.082C44.1884 7.4843 44.9403 7.18359 45.821 7.18359C46.2594 7.18359 46.6774 7.27182 47.0763 7.43584C47.474 7.60111 47.7977 7.82478 48.0322 8.10063L47.4995 8.62501C47.0903 8.15407 46.5334 7.9217 45.821 7.9217C45.1787 7.9217 44.6217 8.1404 44.1489 8.58152C43.6812 9.02389 43.4467 9.59673 43.4467 10.3C43.4467 11.0034 43.6812 11.5812 44.1489 12.0235C44.6217 12.4597 45.1787 12.6833 45.821 12.6833C46.5028 12.6833 47.0763 12.4597 47.5288 12.0186C47.827 11.7265 47.9965 11.3239 48.0411 10.8095H45.821V10.0913H48.7828C48.8185 10.2466 48.8287 10.397 48.8287 10.5423Z" fill="white" stroke="white" stroke-width="0.122349" stroke-miterlimit="10"/>
<path d="M53.5278 8.0522H50.7456V9.94096H53.2538V10.6592H50.7456V12.5479H53.5278V13.2798H49.958V7.32031H53.5278V8.0522Z" fill="white" stroke="white" stroke-width="0.122349" stroke-miterlimit="10"/>
<path d="M56.8442 13.2798H56.0566V8.0522H54.3501V7.32031H58.552V8.0522H56.8442V13.2798Z" fill="white" stroke="white" stroke-width="0.122349" stroke-miterlimit="10"/>
<path d="M61.5928 13.2798V7.32031H62.3791V13.2798H61.5928Z" fill="white" stroke="white" stroke-width="0.122349" stroke-miterlimit="10"/>
<path d="M65.8647 13.2798H65.0835V8.0522H63.3706V7.32031H67.5776V8.0522H65.8647V13.2798Z" fill="white" stroke="white" stroke-width="0.122349" stroke-miterlimit="10"/>
<path d="M75.5327 12.5131C74.9298 13.1158 74.183 13.4165 73.2922 13.4165C72.3962 13.4165 71.6494 13.1158 71.0466 12.5131C70.445 11.9117 70.1455 11.1736 70.1455 10.3C70.1455 9.42649 70.445 8.68838 71.0466 8.08697C71.6494 7.4843 72.3962 7.18359 73.2922 7.18359C74.1779 7.18359 74.9248 7.4843 75.5276 8.09194C76.1342 8.69833 76.4337 9.43146 76.4337 10.3C76.4337 11.1736 76.1342 11.9117 75.5327 12.5131ZM71.629 12.0136C72.0827 12.4597 72.6345 12.6833 73.2922 12.6833C73.9447 12.6833 74.5016 12.4597 74.9502 12.0136C75.4027 11.5675 75.6321 10.9947 75.6321 10.3C75.6321 9.60543 75.4027 9.03259 74.9502 8.58649C74.5016 8.1404 73.9447 7.91673 73.2922 7.91673C72.6345 7.91673 72.0827 8.1404 71.629 8.58649C71.1766 9.03259 70.9471 9.60543 70.9471 10.3C70.9471 10.9947 71.1766 11.5675 71.629 12.0136Z" fill="white" stroke="white" stroke-width="0.122349" stroke-miterlimit="10"/>
<path d="M77.5391 13.2798V7.32031H78.4949L81.467 11.9552H81.5014L81.467 10.8095V7.32031H82.2533V13.2798H81.4325L78.3203 8.41629H78.2859L78.3203 9.56694V13.2798H77.5391Z" fill="white" stroke="white" stroke-width="0.122349" stroke-miterlimit="10"/>
<path d="M69.9519 21.9831C67.5572 21.9831 65.6009 23.76 65.6009 26.2116C65.6009 28.6434 67.5572 30.439 69.9519 30.439C72.3517 30.439 74.308 28.6434 74.308 26.2116C74.308 23.76 72.3517 21.9831 69.9519 21.9831ZM69.9519 28.7739C68.638 28.7739 67.5075 27.7164 67.5075 26.2116C67.5075 24.687 68.638 23.6481 69.9519 23.6481C71.2659 23.6481 72.4014 24.687 72.4014 26.2116C72.4014 27.7164 71.2659 28.7739 69.9519 28.7739ZM60.4584 21.9831C58.0586 21.9831 56.1074 23.76 56.1074 26.2116C56.1074 28.6434 58.0586 30.439 60.4584 30.439C62.857 30.439 64.8095 28.6434 64.8095 26.2116C64.8095 23.76 62.857 21.9831 60.4584 21.9831ZM60.4584 28.7739C59.1432 28.7739 58.0089 27.7164 58.0089 26.2116C58.0089 24.687 59.1432 23.6481 60.4584 23.6481C61.7724 23.6481 62.9029 24.687 62.9029 26.2116C62.9029 27.7164 61.7724 28.7739 60.4584 28.7739ZM49.1616 23.2791V25.0759H53.5623C53.4336 26.0799 53.0895 26.818 52.5619 27.3325C51.9195 27.9538 50.9191 28.6434 49.1616 28.6434C46.4534 28.6434 44.3327 26.5123 44.3327 23.8718C44.3327 21.2313 46.4534 19.1002 49.1616 19.1002C50.626 19.1002 51.6914 19.6581 52.4778 20.3813L53.7764 19.1151C52.6766 18.0912 51.2135 17.3047 49.1616 17.3047C45.4478 17.3047 42.3267 20.2509 42.3267 23.8718C42.3267 27.4928 45.4478 30.439 49.1616 30.439C51.1689 30.439 52.6766 29.7978 53.8618 28.5949C55.0764 27.4107 55.4549 25.7457 55.4549 24.4012C55.4549 23.9836 55.4192 23.5997 55.3555 23.2791H49.1616ZM95.3558 24.672C94.9977 23.7264 93.8927 21.9831 91.642 21.9831C89.4117 21.9831 87.5548 23.6966 87.5548 26.2116C87.5548 28.58 89.3926 30.439 91.8561 30.439C93.8481 30.439 94.9977 29.2548 95.4705 28.5651L93.9921 27.6046C93.4989 28.3079 92.8273 28.7739 91.8561 28.7739C90.8914 28.7739 90.1993 28.3427 89.7558 27.4928L95.5559 25.1529L95.3558 24.672ZM89.4423 26.0799C89.3926 24.4496 90.741 23.6146 91.707 23.6146C92.464 23.6146 93.1064 23.9836 93.3205 24.5117L89.4423 26.0799ZM84.728 30.1817H86.6346V17.7557H84.728V30.1817ZM81.6056 22.9249H81.5419C81.1137 22.4304 80.2967 21.9831 79.2619 21.9831C77.0902 21.9831 75.1046 23.842 75.1046 26.2253C75.1046 28.5949 77.0902 30.439 79.2619 30.439C80.2967 30.439 81.1137 29.9879 81.5419 29.4784H81.6056V30.0848C81.6056 31.7014 80.7199 32.57 79.2912 32.57C78.1263 32.57 77.4037 31.7499 77.1055 31.0603L75.4474 31.735C75.9253 32.8558 77.1909 34.2351 79.2912 34.2351C81.5266 34.2351 83.4128 32.9527 83.4128 29.8326V22.2403H81.6056V22.9249ZM79.425 28.7739C78.111 28.7739 77.0112 27.7015 77.0112 26.2253C77.0112 24.7354 78.111 23.6481 79.425 23.6481C80.7199 23.6481 81.7407 24.7354 81.7407 26.2253C81.7407 27.7015 80.7199 28.7739 79.425 28.7739ZM104.282 17.7557H99.7221V30.1817H101.624V25.4735H104.282C106.394 25.4735 108.465 23.9836 108.465 21.614C108.465 19.2456 106.389 17.7557 104.282 17.7557ZM104.332 23.7451H101.624V19.4842H104.332C105.752 19.4842 106.562 20.6336 106.562 21.614C106.562 22.5758 105.752 23.7451 104.332 23.7451ZM116.086 21.9594C114.712 21.9594 113.284 22.5509 112.696 23.8619L114.384 24.5515C114.747 23.8619 115.415 23.6382 116.121 23.6382C117.107 23.6382 118.108 24.216 118.123 25.2362V25.3667C117.779 25.1728 117.042 24.8858 116.136 24.8858C114.319 24.8858 112.467 25.8612 112.467 27.6816C112.467 29.3467 113.955 30.4191 115.629 30.4191C116.908 30.4191 117.614 29.8562 118.058 29.2013H118.123V30.1619H119.959V25.3952C119.959 23.1921 118.272 21.9594 116.086 21.9594ZM115.857 28.7689C115.235 28.7689 114.368 28.4682 114.368 27.7164C114.368 26.7546 115.449 26.3856 116.384 26.3856C117.222 26.3856 117.614 26.5658 118.123 26.8031C117.974 27.9538 116.958 28.7689 115.857 28.7689ZM126.65 22.2316L124.465 27.6183H124.4L122.14 22.2316H120.089L123.484 29.7593L121.547 33.9481H123.534L128.766 22.2316H126.65ZM109.51 30.1817H111.417V17.7557H109.51V30.1817Z" fill="white"/>
<defs>
<linearGradient id="paint0_linear_24_9971" x1="22.7098" y1="31.4643" x2="6.03211" y2="14.359" gradientUnits="userSpaceOnUse">
<stop stop-color="#00A0FF"/>
<stop offset="0.0066" stop-color="#00A1FF"/>
<stop offset="0.2601" stop-color="#00BEFF"/>
<stop offset="0.5122" stop-color="#00D2FF"/>
<stop offset="0.7604" stop-color="#00DFFF"/>
<stop offset="1" stop-color="#00E3FF"/>
</linearGradient>
<linearGradient id="paint1_linear_24_9971" x1="34.9799" y1="20.2395" x2="10.3095" y2="20.2395" gradientUnits="userSpaceOnUse">
<stop stop-color="#FFE000"/>
<stop offset="0.4087" stop-color="#FFBD00"/>
<stop offset="0.7754" stop-color="#FFA500"/>
<stop offset="1" stop-color="#FF9C00"/>
</linearGradient>
<linearGradient id="paint2_linear_24_9971" x1="25.7962" y1="17.9584" x2="3.17986" y2="-5.23788" gradientUnits="userSpaceOnUse">
<stop stop-color="#FF3A44"/>
<stop offset="1" stop-color="#C31162"/>
</linearGradient>
<linearGradient id="paint3_linear_24_9971" x1="7.92345" y1="39.9475" x2="18.0227" y2="29.5894" gradientUnits="userSpaceOnUse">
<stop stop-color="#32A071"/>
<stop offset="0.0685" stop-color="#2DA771"/>
<stop offset="0.4762" stop-color="#15CF74"/>
<stop offset="0.8009" stop-color="#06E775"/>
<stop offset="1" stop-color="#00F076"/>
</linearGradient>
</defs>
</svg>
